# File created by Blade
# Date/Time:  Thu Jan 22 16:25:48 2015
# Frame Rate: 120.000 fps
#------------------------------------------------------
:FULLY-SPECIFIED
:DEGREES
1065
root 2.450050 37.309088 7.076812 1.245444 -3.993886 1.713352
RightUpLeg 6.384804 -2.048246 -2.725756
RightLeg -7.658116 -0.000000 0.000000
RightFoot -9.647667 -19.675239 19.164921
RightToeBase 13.596746 -0.000000 -0.000000
LeftUpLeg 4.984018 5.138772 2.014726
LeftLeg -3.066039 -0.000000 0.000000
LeftFoot -7.532644 14.214139 -18.616361
LeftToeBase 9.370697 -0.000000 -0.000000
Spine 5.008831 -3.264425 -1.488734
RightShoulder -4.871768 -9.611498 -30.813036
RightArm 6.842309 30.561327 25.799922
RightForeArm 8.428129 -0.000000 13.265560
RightHand 3.289132 -0.000000 0.975566
RightHandThumb1 -24.326973 -0.000000 -32.862282
LeftShoulder -23.934057 30.240666 16.068492
LeftArm 42.438295 -51.475179 -50.895852
LeftForeArm 38.640704 -0.000000 3.593313
LeftHand -19.246791 -0.000000 -2.005319
LeftHandThumb1 -26.253704 0.000000 33.147579
Head -13.353155 11.573550 -0.364255
1066
root 2.469868 37.303231 7.086862 1.184883 -3.854919 1.731885
RightUpLeg 6.525429 -1.803729 -2.767102
RightLeg -7.735600 -0.000000 0.000000
RightFoot -9.786267 -19.950584 19.313987
RightToeBase 13.624287 -0.000000 -0.000000
LeftUpLeg 5.189829 4.805387 1.976690
LeftLeg -3.361476 -0.000000 0.000000
LeftFoot -7.462919 14.356559 -18.687671
LeftToeBase 9.336867 -0.000000 -0.000000
Spine 5.009042 -3.359334 -1.469966
RightShoulder -4.850842 -9.602063 -30.784876
RightArm 6.813447 30.571953 25.707280
RightForeArm 8.264017 -0.000000 13.215009
RightHand 3.297236 -0.000000 1.023198
RightHandThumb1 -24.326973 -0.000000 -32.862282
LeftShoulder -23.901469 30.238810 16.036742
LeftArm 42.445305 -51.461187 -50.768685
LeftForeArm 38.658247 -0.000000 3.565586
LeftHand -19.124597 -0.000000 -1.978606
LeftHandThumb1 -26.253704 0.000000 33.147579
Head -13.334917 11.525686 -0.399756
1067
root 2.486876 37.299071 7.096785 1.122970 -3.713394 1.746520
RightUpLeg 6.664593 -1.597004 -2.799970
RightLeg -7.810385 -0.000000 0.000000
RightFoot -9.848312 -20.211058 19.341157
RightToeBase 13.674594 -0.000000 -0.000000
LeftUpLeg 5.369621 4.535353 1.949711
LeftLeg -3.604683 -0.000000 0.000000
LeftFoot -7.382967 14.438848 -18.772330
LeftToeBase 9.285464 -0.000000 -0.000000
Spine 5.014320 -3.423996 -1.464355
RightShoulder -4.861683 -9.589606 -30.739179
RightArm 6.784597 30.591614 25.637589
RightForeArm 8.151877 -0.000000 13.173659
RightHand 3.367464 -0.000000 1.044529
RightHandThumb1 -24.326973 -0.000000 -32.862282
LeftShoulder -23.843022 30.223006 16.041513
LeftArm 42.450907 -51.414573 -50.620862
LeftForeArm 38.678905 -0.000000 3.513071
LeftHand -18.990845 -0.000000 -2.036986
LeftHandThumb1 -26.253704 0.000000 33.147579
Head -13.325440 11.479813 -0.397591
1068
root 2.502854 37.297031 7.103912 1.094251 -3.545513 1.749407
RightUpLeg 6.764876 -1.424020 -2.813464
RightLeg -7.877716 -0.000000 0.000000
RightFoot -9.972178 -20.454046 19.508856
RightToeBase 13.842961 -0.000000 -0.000000
LeftUpLeg 5.474280 4.266708 1.931951
LeftLeg -3.781355 -0.000000 0.000000
LeftFoot -7.323402 14.501910 -18.837813
LeftToeBase 9.331133 -0.000000 -0.000000
Spine 4.993476 -3.544282 -1.446299
RightShoulder -4.848316 -9.496871 -30.695309
RightArm 6.693310 30.521823 25.522679
RightForeArm 8.063907 0.000000 13.178052
RightHand 3.357960 0.000000 1.135531
RightHandThumb1 -24.326973 -0.000000 -32.862282
LeftShoulder -23.831223 30.232067 16.032712
LeftArm 42.490536 -51.358895 -50.533908
LeftForeArm 38.756877 -0.000000 3.476356
LeftHand -18.840118 -0.000000 -2.111504
LeftHandThumb1 -26.253704 0.000000 33.147579
Head -13.345759 11.392333 -0.416312
1069
root 2.518796 37.296665 7.111131 1.070865 -3.379741 1.753228
RightUpLeg 6.848006 -1.296213 -2.827976
RightLeg -7.922776 -0.000000 0.000000
RightFoot -10.059171 -20.695155 19.619574
RightToeBase 13.964221 -0.000000 -0.000000
LeftUpLeg 5.542751 4.037511 1.915135
LeftLeg -3.905224 -0.000000 0.000000
LeftFoot -7.258940 14.534078 -18.881709
LeftToeBase 9.363868 -0.000000 -0.000000
Spine 4.959463 -3.692825 -1.430090
RightShoulder -4.816279 -9.471318 -30.674039
RightArm 6.686244 30.645553 25.503073
RightForeArm 7.785906 -0.000000 13.167123
RightHand 3.405941 0.000000 1.236513
RightHandThumb1 -24.326973 -0.000000 -32.862282
LeftShoulder -23.808174 30.213194 16.043694
LeftArm 42.359652 -51.230674 -50.293770
LeftForeArm 38.837600 -0.000000 3.445247
LeftHand -18.752055 -0.000000 -2.133240
LeftHandThumb1 -26.253704 0.000000 33.147579
Head -13.344093 11.395657 -0.381583
